# xmcd
#
# Track frame offsets:
#	150
#	20870
#	31236
#	39373
#	66680
#	77670
#	85597
#	101815
#	112675
#	128972
#	138772
#	146037
#	156135
#	171254
#	182616
#	190726
#	201984
#	208746
#	220203
#
# Disc length: 3101 seconds
#
# Revision: 1
# Processed by: cddbd v1.5.1PL0 Copyright (c) Steve Scherf et al.
# Submitted via: dBpowerAMP V4.0
#
DISCID=110c1b13
DTITLE=ALCYMAR MONTEIRO - ao vivo 2
DYEAR=2003
DGENRE=Acid Jazz
TTITLE0=momentos de felicidade
TTITLE1=bota fogo no forro
TTITLE2=festa brasileira
TTITLE3=miragem
TTITLE4=morena linda
TTITLE5=se ainda existe amor
TTITLE6=vaquejada
TTITLE7=cavaleiro alado
TTITLE8=pout pourri
TTITLE9=carencia de caricia
TTITLE10=homem passarinho
TTITLE11=casa abandonada
TTITLE12=pout pourri
TTITLE13=festa de vaquejada
TTITLE14=festrilhas
TTITLE15=a dona do forro
TTITLE16=cabriola
TTITLE17=cometa mambembe
TTITLE18=pout pourri
EXTD=
EXTT0=
EXTT1=
EXTT2=
EXTT3=
EXTT4=
EXTT5=
EXTT6=
EXTT7=
EXTT8=
EXTT9=
EXTT10=
EXTT11=
EXTT12=
EXTT13=
EXTT14=
EXTT15=
EXTT16=
EXTT17=
EXTT18=
PLAYORDER=
